<mxfile host="app.diagrams.net" modified="2023-03-20T00:56:05.917Z" agent="5.0 (Windows NT 10.0; Win64; x64) AppleWebKit/537.36 (KHTML, like Gecko) Chrome/111.0.0.0 Safari/537.36" etag="3p_bFznzJ4ynvwb4QBzg" version="21.0.8" type="github">
  <diagram id="C5RBs43oDa-KdzZeNtuy" name="Page-1">
    <mxGraphModel dx="1434" dy="796" grid="1" gridSize="10" guides="1" tooltips="1" connect="1" arrows="1" fold="1" page="1" pageScale="1" pageWidth="827" pageHeight="1169" math="0" shadow="0">
      <root>
        <mxCell id="WIyWlLk6GJQsqaUBKTNV-0" />
        <mxCell id="WIyWlLk6GJQsqaUBKTNV-1" parent="WIyWlLk6GJQsqaUBKTNV-0" />
        <mxCell id="GnZ1RrjTJg-woFLYlVwF-10" style="edgeStyle=orthogonalEdgeStyle;rounded=0;orthogonalLoop=1;jettySize=auto;html=1;entryX=0.5;entryY=0;entryDx=0;entryDy=0;" parent="WIyWlLk6GJQsqaUBKTNV-1" target="GnZ1RrjTJg-woFLYlVwF-1" edge="1">
          <mxGeometry relative="1" as="geometry">
            <mxPoint x="430" y="160" as="sourcePoint" />
          </mxGeometry>
        </mxCell>
        <mxCell id="GnZ1RrjTJg-woFLYlVwF-11" style="edgeStyle=orthogonalEdgeStyle;rounded=0;orthogonalLoop=1;jettySize=auto;html=1;entryX=0.5;entryY=0;entryDx=0;entryDy=0;" parent="WIyWlLk6GJQsqaUBKTNV-1" source="GnZ1RrjTJg-woFLYlVwF-1" target="GnZ1RrjTJg-woFLYlVwF-2" edge="1">
          <mxGeometry relative="1" as="geometry" />
        </mxCell>
        <mxCell id="GnZ1RrjTJg-woFLYlVwF-1" value="SET PINS" style="rounded=0;whiteSpace=wrap;html=1;fillColor=#ffe6cc;strokeColor=#d79b00;" parent="WIyWlLk6GJQsqaUBKTNV-1" vertex="1">
          <mxGeometry x="370" y="220" width="120" height="60" as="geometry" />
        </mxCell>
        <mxCell id="GnZ1RrjTJg-woFLYlVwF-12" style="edgeStyle=orthogonalEdgeStyle;rounded=0;orthogonalLoop=1;jettySize=auto;html=1;entryX=0.5;entryY=0;entryDx=0;entryDy=0;" parent="WIyWlLk6GJQsqaUBKTNV-1" source="GnZ1RrjTJg-woFLYlVwF-2" edge="1">
          <mxGeometry relative="1" as="geometry">
            <Array as="points">
              <mxPoint x="430" y="430" />
              <mxPoint x="430" y="430" />
            </Array>
            <mxPoint x="430" y="460" as="targetPoint" />
          </mxGeometry>
        </mxCell>
        <mxCell id="GnZ1RrjTJg-woFLYlVwF-31" style="edgeStyle=orthogonalEdgeStyle;rounded=0;orthogonalLoop=1;jettySize=auto;html=1;entryX=1;entryY=0.5;entryDx=0;entryDy=0;" parent="WIyWlLk6GJQsqaUBKTNV-1" source="GnZ1RrjTJg-woFLYlVwF-2" edge="1">
          <mxGeometry relative="1" as="geometry">
            <mxPoint x="296" y="365" as="targetPoint" />
          </mxGeometry>
        </mxCell>
        <mxCell id="GnZ1RrjTJg-woFLYlVwF-2" value="True ?" style="rhombus;whiteSpace=wrap;html=1;fillColor=#dae8fc;strokeColor=#6c8ebf;" parent="WIyWlLk6GJQsqaUBKTNV-1" vertex="1">
          <mxGeometry x="380" y="330" width="100" height="70" as="geometry" />
        </mxCell>
        <mxCell id="GnZ1RrjTJg-woFLYlVwF-14" style="edgeStyle=orthogonalEdgeStyle;rounded=0;orthogonalLoop=1;jettySize=auto;html=1;entryX=0.5;entryY=0;entryDx=0;entryDy=0;" parent="WIyWlLk6GJQsqaUBKTNV-1" edge="1">
          <mxGeometry relative="1" as="geometry">
            <mxPoint x="430" y="520" as="sourcePoint" />
            <mxPoint x="430" y="600" as="targetPoint" />
          </mxGeometry>
        </mxCell>
        <mxCell id="GnZ1RrjTJg-woFLYlVwF-18" style="edgeStyle=orthogonalEdgeStyle;rounded=0;orthogonalLoop=1;jettySize=auto;html=1;entryX=0.5;entryY=0;entryDx=0;entryDy=0;" parent="WIyWlLk6GJQsqaUBKTNV-1" edge="1">
          <mxGeometry relative="1" as="geometry">
            <mxPoint x="430" y="660" as="sourcePoint" />
            <mxPoint x="430" y="720" as="targetPoint" />
          </mxGeometry>
        </mxCell>
        <mxCell id="GnZ1RrjTJg-woFLYlVwF-19" style="edgeStyle=orthogonalEdgeStyle;rounded=0;orthogonalLoop=1;jettySize=auto;html=1;entryX=0.5;entryY=0;entryDx=0;entryDy=0;" parent="WIyWlLk6GJQsqaUBKTNV-1" edge="1">
          <mxGeometry relative="1" as="geometry">
            <Array as="points">
              <mxPoint x="424" y="810" />
            </Array>
            <mxPoint x="423.5" y="780" as="sourcePoint" />
            <mxPoint x="423.5" y="840" as="targetPoint" />
          </mxGeometry>
        </mxCell>
        <mxCell id="GnZ1RrjTJg-woFLYlVwF-23" style="edgeStyle=orthogonalEdgeStyle;rounded=0;orthogonalLoop=1;jettySize=auto;html=1;entryX=0.5;entryY=0;entryDx=0;entryDy=0;" parent="WIyWlLk6GJQsqaUBKTNV-1" edge="1">
          <mxGeometry relative="1" as="geometry">
            <mxPoint x="416.5" y="1030" as="sourcePoint" />
            <mxPoint x="416.5" y="1090" as="targetPoint" />
          </mxGeometry>
        </mxCell>
        <mxCell id="GnZ1RrjTJg-woFLYlVwF-9" style="edgeStyle=orthogonalEdgeStyle;rounded=0;orthogonalLoop=1;jettySize=auto;html=1;entryX=1;entryY=0.5;entryDx=0;entryDy=0;" parent="WIyWlLk6GJQsqaUBKTNV-1" target="GnZ1RrjTJg-woFLYlVwF-2" edge="1">
          <mxGeometry relative="1" as="geometry">
            <Array as="points">
              <mxPoint x="650" y="1120" />
              <mxPoint x="650" y="365" />
            </Array>
            <mxPoint x="460" y="1120" as="sourcePoint" />
          </mxGeometry>
        </mxCell>
        <mxCell id="GnZ1RrjTJg-woFLYlVwF-24" value="YES&lt;br&gt;" style="text;strokeColor=none;align=center;fillColor=none;html=1;verticalAlign=middle;whiteSpace=wrap;rounded=0;" parent="WIyWlLk6GJQsqaUBKTNV-1" vertex="1">
          <mxGeometry x="410" y="420" width="40" height="10" as="geometry" />
        </mxCell>
        <mxCell id="PkAnZrPUm21zvwZT5zWO-0" value="START" style="ellipse;whiteSpace=wrap;html=1;fillColor=#d5e8d4;strokeColor=#82b366;" vertex="1" parent="WIyWlLk6GJQsqaUBKTNV-1">
          <mxGeometry x="366.5" y="100" width="127" height="60" as="geometry" />
        </mxCell>
        <mxCell id="PkAnZrPUm21zvwZT5zWO-1" value="END" style="ellipse;whiteSpace=wrap;html=1;fillColor=#f8cecc;strokeColor=#b85450;" vertex="1" parent="WIyWlLk6GJQsqaUBKTNV-1">
          <mxGeometry x="170" y="335" width="127" height="60" as="geometry" />
        </mxCell>
        <mxCell id="PkAnZrPUm21zvwZT5zWO-3" value="&lt;font style=&quot;font-size: 10px;&quot;&gt;Set PIN 4 to high&lt;br style=&quot;border-color: var(--border-color);&quot;&gt;&lt;/font&gt;&lt;span style=&quot;font-size: 10px;&quot;&gt;Set PIN 5 to low&lt;/span&gt;&lt;br style=&quot;border-color: var(--border-color); font-size: 10px;&quot;&gt;&lt;span style=&quot;font-size: 10px;&quot;&gt;Set PIN 6 to low&lt;br&gt;&lt;/span&gt;" style="rounded=0;whiteSpace=wrap;html=1;fillColor=#ffe6cc;strokeColor=#d79b00;" vertex="1" parent="WIyWlLk6GJQsqaUBKTNV-1">
          <mxGeometry x="373" y="460" width="120" height="60" as="geometry" />
        </mxCell>
        <mxCell id="PkAnZrPUm21zvwZT5zWO-4" value="&lt;font style=&quot;border-color: var(--border-color); font-size: 10px;&quot;&gt;Set PIN 4 to low&lt;br style=&quot;border-color: var(--border-color);&quot;&gt;&lt;/font&gt;&lt;font style=&quot;font-size: 10px;&quot;&gt;Set PIN 5 to high&lt;br style=&quot;border-color: var(--border-color);&quot;&gt;&lt;/font&gt;&lt;span style=&quot;border-color: var(--border-color); font-size: 10px;&quot;&gt;Set PIN 6 to low&lt;/span&gt;&lt;span style=&quot;font-size: 10px;&quot;&gt;&lt;br&gt;&lt;/span&gt;" style="rounded=0;whiteSpace=wrap;html=1;fillColor=#ffe6cc;strokeColor=#d79b00;" vertex="1" parent="WIyWlLk6GJQsqaUBKTNV-1">
          <mxGeometry x="370" y="720" width="120" height="60" as="geometry" />
        </mxCell>
        <mxCell id="PkAnZrPUm21zvwZT5zWO-5" value="&lt;font style=&quot;border-color: var(--border-color); font-size: 10px;&quot;&gt;Set PIN 4 to low&lt;br style=&quot;border-color: var(--border-color);&quot;&gt;&lt;/font&gt;&lt;font style=&quot;font-size: 10px;&quot;&gt;Set PIN 5 to low&lt;br style=&quot;border-color: var(--border-color);&quot;&gt;&lt;/font&gt;&lt;span style=&quot;border-color: var(--border-color); font-size: 10px;&quot;&gt;Set PIN 6 to high&lt;/span&gt;" style="rounded=0;whiteSpace=wrap;html=1;fillColor=#ffe6cc;strokeColor=#d79b00;" vertex="1" parent="WIyWlLk6GJQsqaUBKTNV-1">
          <mxGeometry x="363.5" y="970" width="120" height="60" as="geometry" />
        </mxCell>
        <mxCell id="PkAnZrPUm21zvwZT5zWO-6" value="Delay 1s" style="shape=process;whiteSpace=wrap;html=1;backgroundOutline=1;fillColor=#f5f5f5;fontColor=#333333;strokeColor=#666666;" vertex="1" parent="WIyWlLk6GJQsqaUBKTNV-1">
          <mxGeometry x="380" y="600" width="100" height="60" as="geometry" />
        </mxCell>
        <mxCell id="PkAnZrPUm21zvwZT5zWO-9" style="edgeStyle=orthogonalEdgeStyle;rounded=0;orthogonalLoop=1;jettySize=auto;html=1;entryX=0.5;entryY=0;entryDx=0;entryDy=0;" edge="1" parent="WIyWlLk6GJQsqaUBKTNV-1" source="PkAnZrPUm21zvwZT5zWO-7" target="PkAnZrPUm21zvwZT5zWO-5">
          <mxGeometry relative="1" as="geometry" />
        </mxCell>
        <mxCell id="PkAnZrPUm21zvwZT5zWO-7" value="Delay 1s" style="shape=process;whiteSpace=wrap;html=1;backgroundOutline=1;fillColor=#f5f5f5;fontColor=#333333;strokeColor=#666666;" vertex="1" parent="WIyWlLk6GJQsqaUBKTNV-1">
          <mxGeometry x="373" y="840" width="100" height="60" as="geometry" />
        </mxCell>
        <mxCell id="PkAnZrPUm21zvwZT5zWO-8" value="Delay 1s" style="shape=process;whiteSpace=wrap;html=1;backgroundOutline=1;fillColor=#f5f5f5;fontColor=#333333;strokeColor=#666666;" vertex="1" parent="WIyWlLk6GJQsqaUBKTNV-1">
          <mxGeometry x="366.5" y="1090" width="100" height="60" as="geometry" />
        </mxCell>
      </root>
    </mxGraphModel>
  </diagram>
</mxfile>
